<?xml version="1.0" standalone="no"?>
<!DOCTYPE svg PUBLIC "-//W3C//DTD SVG 20010904//EN"
 "http://www.w3.org/TR/2001/REC-SVG-20010904/DTD/svg10.dtd">
<svg version="1.0" xmlns="http://www.w3.org/2000/svg"
 width="512.000000pt" height="512.000000pt" viewBox="0 0 512.000000 512.000000"
 preserveAspectRatio="xMidYMid meet">
<metadata>
Created by potrace 1.11, written by Peter Selinger 2001-2013
</metadata>
<g transform="translate(0.000000,512.000000) scale(0.100000,-0.100000)"
fill="#000000" stroke="none">
<path d="M3262 5102 c-5 -12 -19 -18 -47 -19 -22 -1 -46 -2 -52 -2 -7 -1 -13
-10 -13 -22 0 -11 -5 -17 -10 -14 -6 4 -8 10 -6 14 3 4 -1 8 -8 8 -8 0 -12 -6
-9 -12 3 -8 -5 -11 -21 -10 -20 3 -26 -1 -26 -16 0 -10 -5 -19 -11 -19 -5 0
-8 4 -4 9 3 5 1 13 -5 16 -6 4 -10 3 -9 -2 4 -21 -2 -32 -16 -27 -21 8 -38 -5
-26 -20 8 -9 7 -13 -4 -13 -8 0 -15 5 -15 11 0 6 -5 3 -11 -6 -5 -10 -17 -15
-27 -12 -14 5 -13 3 3 -10 19 -16 19 -17 -5 -14 -17 2 -24 -1 -22 -11 3 -12 1
-12 -14 0 -16 13 -17 12 -12 -12 4 -24 2 -26 -31 -23 -20 1 -28 0 -19 -3 23
-6 11 -32 -13 -28 -11 2 -19 -1 -18 -8 3 -28 -2 -39 -16 -33 -14 5 -19 -5 -16
-31 1 -7 -5 -10 -12 -7 -9 3 -16 -3 -20 -16 -3 -11 -11 -19 -17 -18 -7 2 -15
-3 -18 -11 -3 -10 1 -13 17 -8 11 3 19 1 15 -4 -3 -5 -11 -9 -19 -9 -7 0 -18
-12 -23 -27 -6 -16 -11 -21 -11 -13 -1 13 -2 13 -11 0 -6 -9 -5 -20 3 -29 8
-10 8 -13 1 -8 -7 4 -14 -2 -17 -14 -4 -14 -11 -20 -21 -16 -11 4 -13 0 -10
-19 4 -19 0 -24 -17 -24 -19 0 -20 -2 -8 -17 10 -11 10 -14 2 -9 -9 5 -13 0
-13 -13 0 -11 -9 -25 -20 -31 -11 -6 -19 -19 -18 -28 2 -11 -3 -16 -14 -14 -9
1 -19 -2 -22 -7 -3 -5 1 -8 9 -7 7 0 14 -3 14 -9 0 -5 -7 -9 -15 -9 -8 1 -14
-3 -13 -10 1 -6 -1 -19 -6 -29 -6 -15 -10 -16 -17 -5 -8 10 -9 9 -4 -4 3 -10
-2 -24 -10 -33 -9 -8 -11 -15 -5 -15 6 0 11 -4 11 -9 0 -6 -8 -8 -18 -6 -17 3
-21 -7 -25 -62 0 -7 -3 -12 -6 -11 -22 2 -29 -6 -27 -32 2 -35 2 -35 -18 -14
-14 14 -16 13 -16 -8 0 -51 -3 -60 -21 -55 -14 4 -19 -1 -19 -16 0 -12 0 -33
-1 -47 0 -18 -2 -21 -8 -11 -13 20 -33 3 -25 -21 5 -16 3 -20 -9 -15 -11 4
-14 0 -10 -16 4 -18 3 -19 -6 -7 -9 12 -11 10 -11 -11 0 -27 -22 -54 -33 -42
-4 3 -7 1 -7 -5 0 -7 5 -12 11 -12 6 0 3 -7 -5 -16 -9 -8 -22 -12 -28 -9 -7 4
-4 -1 6 -9 19 -16 19 -16 -1 -16 -18 0 -21 -5 -17 -26 3 -16 1 -23 -6 -19 -5
3 -10 1 -10 -5 0 -6 -4 -9 -8 -6 -5 3 -9 -1 -10 -9 -1 -8 -3 -22 -4 -30 -1
-14 -12 -19 -31 -16 -5 1 -6 -7 -2 -18 3 -11 1 -22 -5 -26 -6 -4 -9 -13 -6
-21 3 -8 1 -14 -3 -14 -5 0 -12 6 -14 13 -6 14 -10 -27 -7 -63 2 -14 3 -34 4
-46 0 -11 6 -21 13 -21 6 0 9 5 5 11 -10 17 -11 37 -1 30 5 -3 7 -9 4 -14 -3
-5 -2 -11 3 -14 5 -3 7 -21 6 -40 -2 -25 2 -39 14 -47 12 -7 12 -9 2 -6 -10 3
-15 -3 -16 -22 -1 -14 1 -20 3 -13 3 6 11 12 20 12 12 0 12 -2 -1 -16 -20 -19
-21 -31 -2 -15 12 10 14 8 12 -16 -2 -15 -1 -32 2 -38 11 -18 10 -35 -1 -35
-8 0 -7 -3 1 -9 8 -4 12 -16 10 -26 -2 -10 4 -20 12 -22 11 -3 11 -2 3 4 -8 6
-9 14 -3 23 11 17 11 15 13 -64 0 -25 4 -43 8 -40 4 2 9 -3 13 -11 3 -8 2 -14
-2 -12 -4 1 -7 -2 -7 -8 0 -5 5 -9 12 -7 7 2 13 -2 13 -8 0 -6 -4 -9 -9 -5 -5
3 -12 1 -16 -5 -3 -5 1 -10 9 -10 15 0 22 -36 17 -79 -2 -8 2 -10 10 -5 8 5 9
3 3 -7 -12 -20 -14 -38 -3 -45 6 -3 5 -12 -3 -22 -12 -15 -11 -16 4 -3 10 7
15 18 11 25 -10 15 -13 40 -5 31 4 -4 8 -11 8 -16 1 -5 3 -11 4 -14 6 -11 8
-27 9 -71 1 -32 5 -45 14 -41 7 3 12 -4 12 -18 0 -16 -5 -21 -15 -17 -8 3 -4
-4 10 -16 15 -13 20 -21 11 -22 -9 0 -10 -4 -4 -12 6 -7 10 -27 9 -44 -1 -24
3 -31 15 -29 11 2 16 -6 17 -33 4 -69 7 -83 22 -93 13 -9 12 -10 -2 -5 -12 3
-18 0 -18 -10 0 -10 6 -14 14 -11 8 3 17 -1 20 -10 4 -11 2 -14 -9 -10 -8 4
-17 2 -20 -4 -4 -5 -3 -9 2 -8 21 4 33 -2 33 -17 0 -14 -2 -15 -17 -3 -14 12
-14 10 2 -14 10 -15 18 -41 17 -57 0 -16 4 -33 10 -36 7 -4 8 -2 4 4 -4 7 -2
12 3 12 6 0 11 -7 11 -15 0 -8 -4 -15 -10 -15 -5 0 -10 -4 -10 -10 0 -5 6 -7
13 -4 9 3 12 -4 11 -23 -1 -16 4 -34 10 -42 6 -9 7 -12 1 -9 -6 4 -11 -2 -11
-13 0 -11 6 -18 15 -16 15 2 18 -12 23 -130 1 -24 6 -43 11 -43 4 0 5 -5 1
-12 -4 -7 -3 -8 4 -4 9 5 9 13 2 26 -7 13 -7 21 2 26 7 4 8 3 4 -4 -4 -7 -3
-12 2 -12 5 0 9 -12 9 -27 1 -72 3 -84 16 -78 6 4 3 -1 -7 -9 -11 -9 -15 -16
-8 -16 6 0 9 -7 6 -15 -4 -8 -1 -15 6 -15 6 0 9 4 6 8 -2 4 0 14 5 22 6 11 8
5 4 -17 -3 -18 -1 -33 4 -33 5 0 8 -18 6 -40 -2 -22 0 -40 4 -40 4 0 6 -14 3
-30 -2 -18 0 -30 7 -30 6 0 8 6 5 14 -3 8 -1 16 4 19 4 3 8 -10 7 -29 -1 -19
1 -36 5 -39 3 -2 5 -20 4 -39 -2 -20 1 -36 7 -36 6 0 8 4 4 9 -3 5 -1 12 4 15
13 8 8 -19 -7 -37 -10 -12 -10 -17 -1 -23 7 -4 9 -3 6 3 -4 6 -1 13 6 16 10 4
13 -4 12 -29 -2 -19 1 -34 5 -34 5 0 5 -14 0 -30 -6 -21 -5 -28 2 -24 6 4 8
-1 4 -12 -3 -11 -1 -26 5 -34 8 -12 9 -10 4 7 -3 12 -2 24 3 27 4 2 9 -10 11
-27 6 -76 9 -98 15 -104 3 -3 1 -12 -5 -20 -14 -16 2 -18 18 -2 12 12 13 4 12
-78 0 -29 5 -43 13 -43 9 0 9 -3 -2 -10 -13 -9 -13 -10 0 -11 8 -1 17 -1 21
-1 3 0 5 -9 6 -21 1 -52 3 -58 20 -55 10 2 18 10 19 18 2 34 4 40 15 40 5 0 7
-6 3 -12 -5 -10 -4 -10 6 -1 12 11 15 21 19 66 1 5 5 6 9 3 4 -2 14 -1 22 5 9
5 10 9 3 9 -6 0 -9 9 -6 20 6 23 19 26 26 8 3 -8 6 -4 7 7 1 11 3 25 5 30 1 6
3 16 3 23 1 7 6 11 11 7 12 -7 21 7 23 39 2 26 17 37 19 14 0 -7 4 -2 10 10 5
13 7 28 4 32 -3 5 4 11 15 15 18 6 25 28 20 64 -1 9 4 12 14 8 14 -6 21 4 17
26 0 4 3 7 8 7 6 0 8 10 6 23 -4 21 -4 21 10 3 14 -19 21 -11 16 17 -1 4 3 17
9 27 8 15 8 20 -2 20 -10 0 -9 3 1 9 8 5 20 7 28 4 9 -4 11 0 7 10 -3 9 3 26
15 38 12 13 20 28 20 33 -3 25 2 37 11 31 6 -4 7 -12 4 -18 -4 -7 -3 -8 1 -4
5 4 11 15 13 25 4 21 10 53 11 67 1 6 6 2 12 -8 6 -9 15 -15 20 -11 6 4 6 11
-2 20 -7 9 -8 14 -1 14 6 0 9 11 7 25 -2 24 -1 25 15 10 16 -14 17 -14 17 2 0
37 3 44 16 37 7 -5 6 0 -3 11 -14 17 -13 18 3 12 16 -6 22 3 18 26 -2 13 26
37 35 29 5 -4 2 1 -5 11 -12 15 -12 17 2 12 9 -4 15 -1 14 7 0 7 1 22 2 33 1
16 3 17 10 6 8 -12 11 -8 17 15 5 16 9 34 9 39 0 6 8 9 16 9 11 -1 15 6 13 22
-1 13 2 22 7 18 5 -3 9 1 9 10 0 8 -6 17 -12 20 -9 4 -8 5 2 5 32 -2 39 2 35
21 -3 15 1 20 13 18 11 -2 17 4 16 17 0 11 9 26 21 33 11 8 13 11 4 9 -9 -3
-16 1 -16 8 0 7 8 10 20 7 14 -4 18 -2 12 7 -9 15 14 63 27 55 4 -3 9 2 9 10
1 9 2 21 3 28 0 6 7 13 15 16 8 3 11 0 7 -7 -4 -6 -2 -11 3 -11 15 0 14 13 -1
29 -7 8 -8 11 -3 9 6 -3 16 0 23 8 7 8 9 14 3 14 -5 0 -11 7 -15 15 -5 13 -2
14 15 4 15 -8 19 -8 15 0 -4 6 -3 11 3 11 5 0 10 8 10 18 1 41 5 50 19 45 11
-5 11 -7 0 -15 -10 -8 -10 -9 2 -5 10 2 14 13 12 30 -2 19 2 27 18 32 13 4 19
12 16 21 -3 7 -1 16 5 20 6 4 5 12 -3 22 -8 9 -8 13 -1 9 20 -13 42 3 37 28
-2 14 3 28 14 36 15 12 16 12 5 -2 -10 -12 -10 -16 0 -16 7 0 14 14 15 31 1
18 12 40 25 51 12 11 21 29 19 40 -3 16 -1 17 7 5 6 -9 11 -10 11 -3 0 6 12
25 26 42 14 17 23 31 20 31 -4 0 -2 9 4 19 7 14 6 21 -3 25 -6 3 -1 5 13 3 22
-3 26 0 25 22 0 17 5 25 14 23 12 -3 12 -1 0 14 -12 16 -12 17 4 11 11 -4 16
-3 12 3 -3 6 -2 10 4 10 5 0 8 12 6 26 -2 19 4 28 21 34 16 6 21 15 17 28 -2
11 0 23 6 26 6 4 11 0 11 -11 0 -14 2 -15 9 -4 5 8 8 23 6 33 -2 10 0 18 4 18
5 0 8 8 7 17 0 10 5 18 12 18 6 0 11 3 10 7 -2 4 6 13 16 21 11 8 21 25 23 38
2 13 10 29 18 35 8 6 15 19 15 29 0 11 5 15 16 11 10 -4 13 -2 7 7 -4 6 -8 18
-9 25 -2 10 1 11 12 1 11 -9 14 -8 15 5 1 9 3 21 4 26 1 6 3 17 4 25 0 8 8 15
16 15 8 0 15 8 15 19 0 10 7 24 15 31 13 11 15 10 9 -6 -4 -15 -4 -16 4 -4 6
8 9 30 8 49 -2 28 0 31 10 17 10 -15 12 -14 19 6 4 13 8 34 9 48 1 14 6 23 11
20 6 -3 8 -12 6 -20 -1 -8 0 -12 3 -9 7 6 17 47 20 81 1 10 6 21 11 25 4 5 5
3 2 -3 -4 -7 -1 -16 6 -22 10 -9 12 -3 12 24 -1 21 5 40 16 50 10 9 17 30 17
50 0 19 6 42 14 51 11 14 11 16 -1 9 -9 -6 -12 -4 -9 5 3 8 10 14 16 14 5 0
14 4 19 9 5 5 3 6 -4 2 -8 -4 -13 -1 -13 9 0 9 3 14 8 12 4 -3 7 5 7 18 0 13
-4 21 -8 18 -5 -3 -3 4 4 15 11 17 10 24 -2 38 -8 10 -9 15 -3 11 8 -5 11 22
11 93 -1 55 -4 100 -9 100 -4 0 -5 6 -2 14 3 7 -2 21 -11 30 -12 12 -13 16 -3
16 11 0 11 2 0 9 -8 4 -13 14 -12 22 5 32 -1 70 -9 65 -5 -3 -15 2 -22 11 -12
15 -12 16 3 10 10 -3 20 -1 24 5 4 7 3 8 -5 4 -6 -4 -14 0 -17 8 -3 9 -11 13
-18 9 -6 -4 -5 1 3 10 12 15 11 17 -2 17 -9 0 -19 5 -22 11 -4 6 0 9 10 7 10
-2 19 3 21 10 1 7 0 8 -3 2 -7 -16 -33 8 -33 31 0 11 -5 19 -11 19 -5 0 -7 -6
-3 -12 5 -9 3 -9 -9 1 -9 7 -14 17 -11 23 3 5 0 16 -8 25 -11 14 -11 15 0 9
11 -7 11 -4 1 13 -10 14 -15 17 -21 8 -7 -12 -9 -9 -12 23 0 8 -9 14 -18 12
-10 -2 -18 2 -18 8 0 6 5 8 10 5 15 -9 12 4 -5 22 -8 8 -12 19 -9 25 4 7 2 8
-5 4 -6 -4 -9 -12 -6 -17 4 -5 1 -9 -6 -9 -6 0 -9 8 -6 20 3 11 1 18 -4 14 -5
-3 -9 -1 -9 5 0 6 -8 8 -17 5 -15 -5 -15 -3 2 11 20 17 20 17 -4 10 -16 -5
-21 -4 -17 4 4 7 -1 11 -13 11 -12 0 -20 6 -19 13 2 7 -6 12 -19 11 -15 0 -20
5 -18 18 2 10 1 19 -3 19 -4 1 -20 3 -36 5 -15 1 -31 6 -35 10 -3 4 4 5 16 2
16 -4 20 -2 16 8 -4 12 -39 20 -67 15 -5 -1 -6 7 -3 19 6 22 -8 28 -16 8 -4
-10 -6 -10 -6 0 -1 6 -9 12 -20 12 -10 0 -25 7 -32 17 -13 15 -12 15 11 3 17
-9 22 -9 14 -1 -12 13 -34 19 -76 20 -19 1 -26 5 -22 15 4 11 -4 14 -31 12
-20 -1 -39 2 -41 6 -3 5 -18 6 -35 3 -17 -3 -29 -1 -29 5 0 7 -6 8 -18 1 -14
-7 -19 -6 -19 3 0 13 25 15 44 3 6 -4 14 -3 17 2 4 5 3 12 -1 14 -5 2 -93 5
-196 5 -169 1 -189 -1 -195 -16z m33 -11 c-3 -6 -11 -11 -16 -11 -5 0 -4 6 3
14 14 16 24 13 13 -3z m32 4 c0 -8 -4 -12 -9 -9 -4 3 -8 9 -8 15 0 5 4 9 8 9
5 0 9 -7 9 -15z m423 -35 c0 -5 -5 -10 -11 -10 -5 0 -7 5 -4 10 3 6 8 10 11
10 2 0 4 -4 4 -10z m615 -689 c3 -5 2 -12 -3 -15 -5 -3 -9 1 -9 9 0 17 3 19
12 6z m15 -45 c0 -3 -4 -8 -10 -11 -5 -3 -10 -1 -10 4 0 6 5 11 10 11 6 0 10
-2 10 -4z m-10 -263 c0 -5 -5 -15 -10 -23 -7 -12 -9 -10 -7 8 1 19 17 33 17
15z m-36 -158 c-4 -8 -11 -12 -17 -8 -8 5 -7 8 1 11 7 2 9 9 6 14 -4 7 -2 8 4
4 6 -4 9 -13 6 -21z m-290 -526 c-3 -5 -10 -7 -15 -3 -5 3 -7 10 -3 15 3 5 10
7 15 3 5 -3 7 -10 3 -15z m-214 -364 c0 -2 -6 -8 -13 -14 -10 -8 -14 -7 -14 2
0 8 6 14 14 14 7 0 13 -1 13 -2z m-880 -1455 c0 -5 -5 -10 -11 -10 -5 0 -7 5
-4 10 3 6 8 10 11 10 2 0 4 -4 4 -10z"/>
<path d="M4259 4663 c-13 -16 -12 -17 4 -4 16 13 21 21 13 21 -2 0 -10 -8 -17
-17z"/>
<path d="M2645 4641 c-3 -5 -2 -12 3 -15 5 -3 9 1 9 9 0 17 -3 19 -12 6z"/>
<path d="M943 4503 c-17 -11 -23 -12 -23 -3 0 9 -4 9 -12 3 -7 -6 -26 -8 -41
-6 -17 2 -26 0 -23 -6 4 -5 1 -13 -5 -17 -7 -4 -9 -3 -5 4 3 6 2 13 -3 16 -5
3 -11 -3 -14 -14 -3 -13 -13 -19 -28 -18 -67 3 -100 -2 -93 -14 5 -8 1 -7 -10
1 -16 13 -17 13 -14 -4 1 -10 -4 -20 -12 -22 -13 -4 -13 -3 0 6 8 6 11 11 6
11 -5 0 -18 -8 -28 -17 -13 -12 -21 -14 -26 -6 -5 8 -14 7 -32 -4 -14 -8 -17
-12 -7 -9 11 3 15 2 12 -4 -3 -6 -15 -10 -26 -10 -10 0 -19 -6 -19 -12 0 -10
-3 -9 -9 1 -5 7 -14 10 -20 6 -8 -4 -9 -11 -2 -19 7 -8 5 -12 -7 -14 -41 -4
-54 -9 -62 -22 -5 -8 -6 -18 -3 -23 3 -5 -5 -4 -17 3 -21 11 -22 10 -17 -9 3
-11 1 -24 -4 -27 -5 -3 -9 1 -9 8 -1 8 -6 6 -15 -6 -8 -10 -12 -23 -9 -27 2
-4 -5 -6 -16 -4 -11 2 -18 0 -15 -5 3 -5 1 -11 -5 -15 -6 -4 -8 -11 -4 -16 3
-6 -2 -9 -12 -7 -13 2 -19 -3 -18 -14 1 -11 -5 -18 -16 -18 -10 0 -21 -7 -24
-16 -4 -10 -2 -13 7 -9 6 4 3 0 -7 -9 -10 -8 -23 -13 -27 -10 -13 8 -11 -10 2
-23 9 -9 6 -11 -12 -7 -13 2 -18 2 -11 -2 6 -3 12 -15 12 -27 0 -14 -3 -18 -8
-10 -5 8 -13 9 -22 3 -8 -6 -11 -10 -7 -10 4 0 3 -9 -3 -20 -6 -11 -16 -17
-22 -14 -7 4 -8 3 -4 -4 4 -6 14 -8 23 -5 11 4 14 3 9 -5 -4 -7 -14 -12 -22
-12 -13 0 -16 -9 -17 -57 0 -13 -4 -20 -10 -16 -7 4 -8 0 -3 -12 5 -14 4 -16
-7 -7 -11 9 -14 5 -14 -21 -1 -66 -7 -106 -15 -101 -5 3 -5 11 -1 17 4 7 0 6
-10 -2 -18 -15 -23 -26 -7 -16 6 3 10 2 10 -4 0 -5 -4 -12 -8 -15 -11 -6 -10
-307 1 -323 5 -8 3 -13 -4 -13 -7 0 -10 -3 -6 -6 3 -3 11 -3 17 1 8 5 8 11 -1
21 -9 11 -9 14 1 14 10 0 9 4 -1 18 -11 14 -11 15 1 5 17 -16 21 -54 6 -72 -8
-11 -8 -13 2 -7 12 7 17 -21 12 -68 -1 -13 2 -16 12 -10 10 6 10 4 -1 -9 -12
-15 -11 -17 3 -17 9 0 16 -5 16 -11 0 -5 -4 -8 -9 -4 -5 3 -13 0 -17 -6 -4 -8
-3 -9 4 -5 7 4 12 2 12 -4 0 -6 4 -9 8 -6 5 3 10 -16 11 -42 1 -26 3 -56 5
-67 2 -11 -1 -26 -7 -33 -7 -9 -6 -11 7 -6 9 3 15 13 14 22 -2 8 3 16 10 18 7
1 8 0 3 -2 -6 -4 -7 -14 -1 -30 6 -16 6 -24 -1 -24 -6 0 -7 -5 -3 -12 4 -7 9
-30 11 -53 5 -60 6 -66 12 -59 10 9 8 28 -4 37 -6 5 -4 7 5 4 9 -2 14 -14 13
-31 -1 -18 2 -25 10 -20 9 5 9 4 0 -6 -8 -8 -9 -20 -3 -36 5 -13 7 -24 3 -24
-3 0 2 -10 13 -22 19 -22 19 -22 0 -8 -18 14 -19 13 -13 -3 4 -10 7 -21 7 -23
0 -3 4 -2 10 1 6 3 11 -6 12 -22 0 -15 2 -32 3 -38 2 -5 3 -25 4 -42 0 -18 5
-33 11 -33 5 0 7 8 3 18 -3 9 -3 14 1 11 10 -9 18 -49 19 -96 0 -24 5 -43 11
-43 6 0 4 -5 -4 -10 -11 -7 -11 -10 -2 -10 7 0 10 -4 7 -10 -3 -5 2 -10 12
-10 15 0 15 -2 3 -9 -8 -6 -18 -7 -24 -4 -5 3 -6 1 -2 -5 4 -6 13 -9 21 -5 12
4 15 -6 16 -48 1 -30 1 -57 0 -61 0 -5 3 -8 9 -8 5 0 10 -5 10 -11 0 -5 -5 -7
-12 -3 -7 4 -8 3 -4 -4 4 -6 12 -9 19 -6 9 3 13 -8 14 -33 6 -138 4 -129 20
-102 l14 24 -6 -27 c-3 -16 -1 -28 3 -28 5 0 8 -16 5 -35 -2 -19 1 -35 7 -35
6 0 6 -9 0 -24 -9 -25 -5 -36 14 -36 6 0 5 4 -2 9 -11 6 -11 10 0 19 14 11 15
10 20 -108 3 -49 7 -65 18 -65 11 0 15 -11 14 -42 0 -24 4 -43 9 -43 5 0 3 -8
-4 -17 -12 -15 -12 -16 6 -11 16 4 20 0 21 -21 2 -69 10 -107 24 -113 12 -5
12 -7 -2 -7 -10 -1 -18 -6 -18 -11 0 -6 8 -10 17 -8 19 3 19 1 23 -94 2 -30 9
-52 19 -60 14 -12 15 -11 2 5 -12 15 -12 17 1 12 11 -4 14 -19 13 -54 -3 -52
20 -115 37 -104 7 4 7 0 1 -12 -6 -10 -7 -32 -2 -53 4 -20 5 -40 2 -45 -3 -6
1 -15 9 -21 16 -12 33 -50 19 -41 -5 3 -13 0 -17 -6 -4 -7 -3 -9 2 -6 6 3 16
2 24 -4 11 -6 12 -9 2 -9 -7 0 -11 -3 -9 -8 3 -4 8 -24 11 -45 4 -28 3 -36 -6
-31 -7 4 -8 3 -4 -5 6 -9 11 -9 21 -1 11 9 14 7 14 -7 4 -112 6 -123 24 -117
9 3 17 1 17 -5 0 -6 -5 -10 -12 -8 -7 1 -13 -8 -14 -20 -1 -12 3 -20 8 -17 4
3 6 10 3 15 -4 5 -2 9 4 9 5 0 10 -8 10 -17 3 -92 8 -124 21 -135 12 -11 12
-11 2 3 -10 13 -10 18 1 22 18 7 17 -35 -2 -51 -14 -11 -14 -11 2 -6 14 5 17
0 18 -27 1 -19 0 -44 -1 -56 -1 -17 3 -21 14 -17 8 3 12 13 9 22 -4 14 -3 15
5 2 7 -9 7 -18 1 -26 -7 -8 -6 -14 3 -17 10 -4 10 -6 -1 -6 -11 -1 -11 -4 -1
-16 7 -8 10 -22 6 -30 -5 -13 5 -19 26 -16 3 0 5 -11 3 -24 -1 -14 2 -25 6
-25 5 0 8 -3 8 -7 -1 -5 -1 -19 0 -33 1 -20 3 -22 11 -10 8 13 10 12 10 -3 0
-12 4 -16 13 -11 8 5 8 2 -2 -9 -9 -12 -10 -17 -2 -17 7 0 10 -4 6 -9 -3 -5 5
-17 17 -25 12 -9 18 -16 13 -16 -6 0 -3 -5 5 -10 12 -8 13 -12 2 -19 -11 -7
-10 -9 3 -14 9 -4 13 -3 10 2 -3 5 -1 12 5 16 5 3 10 -3 10 -15 0 -12 4 -19 8
-16 4 2 14 0 22 -6 12 -8 12 -9 -2 -4 -10 3 -20 1 -23 -4 -6 -9 8 -14 28 -11
4 0 7 -8 7 -18 0 -11 5 -23 10 -26 6 -3 10 -1 10 5 0 6 5 8 11 4 6 -3 9 -14 6
-23 -2 -10 2 -17 12 -18 29 -2 50 -9 58 -18 4 -4 2 -5 -5 -1 -6 4 -12 2 -12
-4 0 -6 -5 -8 -12 -4 -7 4 -8 3 -4 -4 4 -6 13 -9 21 -5 8 3 15 0 15 -7 0 -7 7
-10 15 -7 8 4 17 2 20 -3 4 -6 0 -10 -7 -10 -10 0 -10 -2 1 -9 8 -5 20 -7 28
-4 7 3 13 0 13 -7 0 -6 5 -8 13 -4 8 5 8 2 -2 -9 -15 -19 -1 -23 17 -5 9 9 12
8 12 -5 0 -11 5 -14 17 -10 12 5 14 3 8 -7 -6 -10 -4 -12 8 -7 11 4 14 2 10
-9 -3 -7 0 -14 6 -14 6 0 11 6 11 13 0 9 2 9 8 0 5 -7 20 -14 34 -15 15 -1 24
-6 22 -10 -3 -5 -10 -6 -15 -3 -5 3 -6 -1 -2 -10 3 -9 9 -12 12 -7 8 12 41 12
41 0 0 -5 4 -7 9 -3 5 3 13 1 16 -5 5 -8 11 -7 21 1 11 9 14 9 14 0 0 -8 5 -9
18 -2 14 7 19 6 19 -4 0 -8 -5 -11 -10 -8 -6 3 -7 1 -4 -4 4 -7 77 -11 196
-11 183 0 189 0 186 19 -4 17 0 19 27 15 17 -3 39 -1 49 5 10 5 19 5 21 1 2
-4 14 -2 28 6 23 13 23 13 2 9 -13 -3 -20 -1 -16 5 4 5 19 8 35 6 16 -3 29 -2
29 2 0 3 9 7 20 8 47 4 51 5 41 15 -7 7 -16 5 -28 -4 -16 -13 -17 -12 -5 3 9
11 25 16 47 14 35 -2 52 14 38 37 -4 7 1 6 10 -2 13 -10 17 -10 17 -1 0 7 8
10 20 7 15 -4 22 1 26 20 5 19 9 21 15 11 7 -10 10 -8 15 10 6 20 16 26 36 23
4 0 10 9 13 20 4 12 13 18 20 15 9 -3 12 0 9 9 -4 10 0 13 13 10 11 -2 20 2
21 8 3 38 11 52 28 52 10 0 19 7 20 15 2 31 5 35 14 20 8 -13 10 -13 11 3 1
17 4 29 9 45 1 4 2 10 1 14 0 4 6 5 14 2 10 -4 15 0 15 11 0 10 10 26 22 36
11 11 16 19 9 19 -9 0 -8 5 3 15 8 9 13 22 10 29 -3 8 4 16 18 20 19 5 20 8 8
16 -8 5 -10 10 -4 10 5 0 11 10 11 23 3 49 8 65 18 60 13 -4 13 -4 18 80 2 32
0 60 -5 63 -4 3 -4 13 0 22 5 9 8 45 8 79 -1 38 3 59 9 56 5 -3 5 0 -2 7 -9
10 -8 16 3 27 8 8 14 19 14 26 0 6 -6 2 -14 -8 -15 -21 -15 -18 -17 78 -1 25
-5 37 -13 34 -6 -3 -13 3 -13 12 -1 9 -4 30 -6 46 -2 17 0 35 5 42 6 8 0 17
-19 28 -15 9 -21 14 -12 11 14 -4 17 3 16 35 -1 21 -4 33 -8 27 -4 -7 -5 -16
-3 -20 3 -4 0 -8 -6 -8 -5 0 -10 12 -10 28 0 92 -2 103 -16 91 -12 -10 -13 -8
-8 6 6 14 4 16 -7 10 -8 -5 -11 -5 -6 1 5 5 13 9 18 9 5 0 9 5 8 10 0 6 -8 8
-17 7 -14 -3 -15 -1 -4 9 6 7 12 18 12 23 0 6 -5 4 -10 -4 -11 -17 -11 -17
-12 66 -1 51 -4 60 -17 57 -13 -3 -17 6 -18 49 -3 63 -7 85 -16 94 -3 4 -4 -4
-2 -16 2 -12 1 -20 -2 -16 -4 4 -9 28 -10 54 -2 26 -8 48 -13 50 -6 2 -10 8
-10 13 0 6 4 8 9 4 5 -3 8 6 7 20 -2 14 -7 24 -12 23 -5 -2 -8 -9 -8 -15 1 -7
-2 -11 -6 -8 -4 3 -7 32 -6 65 0 33 -2 60 -6 60 -4 0 -5 9 -3 20 2 11 -1 23
-7 26 -6 4 -8 2 -4 -4 3 -6 3 -13 -2 -16 -7 -4 -11 19 -16 104 -1 22 -7 35
-16 35 -7 0 -15 10 -16 23 -2 12 0 22 5 22 6 0 8 -9 6 -21 -4 -18 -2 -19 11
-8 14 12 14 15 -5 30 -16 13 -21 30 -23 76 -2 39 -7 60 -15 60 -10 0 -10 -4
-1 -16 10 -14 10 -14 -2 -3 -15 13 -17 20 -19 93 -1 29 -4 38 -13 33 -8 -5 -7
0 2 11 14 17 13 17 -10 12 -14 -4 -19 -4 -12 -1 6 3 12 10 12 15 0 6 -6 7 -12
3 -9 -5 -9 -2 1 9 7 9 9 17 4 17 -6 0 -9 14 -7 31 2 16 0 28 -5 24 -5 -3 -7 4
-4 16 3 12 0 25 -7 29 -7 4 -14 22 -16 40 -2 17 -6 35 -9 40 -3 5 -1 12 5 15
8 5 8 11 0 20 -7 8 -9 19 -6 24 4 5 2 12 -4 16 -6 4 -7 11 -4 17 5 7 2 9 -8 6
-12 -5 -15 2 -16 30 -2 83 -6 121 -13 110 -4 -7 -6 -15 -3 -19 2 -4 0 -11 -6
-14 -7 -4 -11 6 -10 27 0 69 -5 116 -12 112 -4 -3 -8 0 -8 6 0 6 -5 8 -12 4
-7 -4 -8 -3 -4 5 4 6 11 9 16 6 5 -3 12 -1 15 5 4 6 3 10 -2 9 -24 -4 -31 5
-31 46 -1 44 -22 81 -37 67 -5 -4 -5 -1 -1 6 6 11 11 11 24 0 15 -11 15 -11 4
4 -10 13 -10 17 0 20 9 3 9 6 0 12 -7 4 -12 2 -12 -3 0 -6 -4 -11 -8 -11 -5 0
-8 23 -8 50 1 33 -3 49 -10 46 -6 -2 -11 2 -11 10 0 7 4 11 9 8 14 -9 9 8 -7
20 -13 10 -21 55 -28 163 0 12 -4 20 -8 17 -4 -2 -6 -13 -4 -24 2 -12 0 -18
-6 -15 -5 4 -7 11 -4 16 4 5 1 9 -6 9 -8 0 -9 3 0 13 6 8 8 16 6 19 -3 3 -7
23 -8 44 -1 29 -6 39 -18 38 -18 -1 -19 12 -5 35 6 10 5 12 -2 7 -12 -7 -13 6
-14 111 0 18 -4 30 -9 27 -4 -2 -6 -10 -3 -18 3 -7 -1 -13 -9 -13 -18 0 -16
28 3 45 13 10 13 12 0 10 -10 -2 -14 7 -15 32 -1 37 -12 63 -24 56 -4 -3 -8
12 -9 32 -3 37 -18 56 -36 45 -5 -3 -6 -1 -2 6 4 6 11 9 16 6 5 -3 12 0 16 6
4 7 3 9 -2 6 -17 -10 -33 8 -36 40 -1 17 -5 31 -8 31 -3 -1 -16 4 -30 10 -22
9 -22 11 -5 12 20 1 20 1 1 15 -10 8 -24 11 -30 8 -6 -4 -6 0 1 9 15 17 8 28
-17 28 -12 0 -16 7 -15 24 2 19 -1 23 -20 21 -18 -2 -22 1 -19 22 2 18 -1 22
-10 14 -18 -15 -28 -1 -14 18 7 9 8 13 4 9 -5 -5 -16 1 -23 12 -8 11 -19 18
-24 15 -5 -4 -9 -1 -9 4 0 6 -3 10 -7 10 -28 -5 -35 1 -22 17 11 14 10 16 -6
14 -35 -4 -44 0 -39 15 5 11 2 13 -10 9 -9 -3 -16 -1 -16 5 0 6 -12 11 -26 11
-14 0 -23 4 -19 10 5 9 -1 12 -21 9 -4 0 -10 5 -15 12 -4 7 -24 13 -43 12 -20
0 -33 4 -30 8 3 5 9 7 13 5 4 -3 13 -1 20 4 9 5 2 8 -20 9 -77 2 -118 6 -125
13 -3 4 2 6 13 4 11 -3 26 0 34 4 11 7 9 9 -6 9 -11 0 -47 3 -80 6 -33 3 -93
5 -133 5 -48 0 -71 3 -67 10 8 13 5 12 -22 -7z m-473 -177 c0 -3 -4 -8 -10
-11 -5 -3 -10 -1 -10 4 0 6 5 11 10 11 6 0 10 -2 10 -4z m1125 -36 c3 -5 -1
-10 -10 -10 -9 0 -13 5 -10 10 3 6 8 10 10 10 2 0 7 -4 10 -10z m184 -234 c-3
-3 -11 5 -18 17 -13 21 -12 21 5 5 10 -10 16 -20 13 -22z m71 -166 c0 -5 -2
-10 -4 -10 -3 0 -8 5 -11 10 -3 6 -1 10 4 10 6 0 11 -4 11 -10z m-1740 -144
c0 -3 -4 -8 -10 -11 -5 -3 -10 -1 -10 4 0 6 5 11 10 11 6 0 10 -2 10 -4z
m2035 -986 c3 -5 1 -10 -4 -10 -6 0 -11 5 -11 10 0 6 2 10 4 10 3 0 8 -4 11
-10z m-1671 -786 c3 -8 2 -12 -4 -9 -6 3 -10 1 -10 -6 0 -7 -2 -10 -5 -7 -5 5
4 38 10 38 2 0 6 -7 9 -16z m1961 -395 c-3 -12 -7 -24 -10 -27 -3 -3 -3 5 -1
19 6 30 5 29 10 29 3 0 3 -10 1 -21z m-925 -1553 c0 -2 -7 -7 -16 -10 -8 -3
-12 -2 -9 4 6 10 25 14 25 6z m310 -4 c0 -4 -9 -8 -19 -8 -11 0 -17 4 -15 8 3
4 12 8 20 8 8 0 14 -4 14 -8z"/>
<path d="M782 4487 c-8 -10 -6 -13 9 -14 19 -2 26 11 10 21 -5 3 -14 0 -19 -7z"/>
<path d="M2415 4260 c3 -5 8 -10 11 -10 2 0 4 5 4 10 0 6 -5 10 -11 10 -5 0
-7 -4 -4 -10z"/>
<path d="M78 3813 c7 -3 16 -2 19 1 4 3 -2 6 -13 5 -11 0 -14 -3 -6 -6z"/>
<path d="M4150 3559 c0 -5 5 -7 10 -4 6 3 10 8 10 11 0 2 -4 4 -10 4 -5 0 -10
-5 -10 -11z"/>
<path d="M1993 3369 c-2 -23 3 -25 10 -4 4 8 3 16 -1 19 -4 3 -9 -4 -9 -15z"/>
<path d="M3928 3193 c7 -3 16 -2 19 1 4 3 -2 6 -13 5 -11 0 -14 -3 -6 -6z"/>
<path d="M3750 2890 c-6 -11 -8 -20 -6 -20 3 0 10 9 16 20 6 11 8 20 6 20 -3
0 -10 -9 -16 -20z"/>
<path d="M3907 2759 c7 -7 15 -10 18 -7 3 3 -2 9 -12 12 -14 6 -15 5 -6 -5z"/>
<path d="M3882 2742 c-5 -1 -8 -18 -6 -37 2 -34 2 -35 -14 -15 -17 21 -17 21
-19 -4 -4 -51 -7 -56 -25 -56 -15 0 -18 -5 -13 -19 3 -11 1 -22 -4 -25 -6 -4
-8 -14 -5 -24 5 -14 4 -14 -4 -2 -8 10 -8 18 0 27 8 11 7 12 -6 7 -10 -4 -15
-13 -12 -20 3 -8 1 -14 -5 -14 -6 0 -9 -6 -6 -13 3 -8 1 -20 -4 -28 -7 -12 -9
-12 -9 0 0 16 -13 7 -16 -12 -13 -61 -24 -87 -24 -54 0 9 -4 18 -8 21 -5 3 -8
-3 -8 -12 0 -50 -5 -73 -14 -67 -6 4 -7 11 -4 17 4 7 2 8 -5 4 -6 -4 -11 -13
-10 -19 3 -27 -2 -38 -13 -31 -8 5 -7 0 2 -11 14 -17 13 -18 -2 -13 -17 7 -33
-16 -23 -32 3 -5 1 -11 -5 -15 -6 -4 -8 -11 -5 -16 3 -5 0 -6 -8 -3 -15 5 -31
-22 -21 -37 3 -5 -5 -9 -16 -9 -15 0 -20 -5 -17 -15 4 -8 2 -17 -4 -20 -5 -4
-7 -11 -3 -16 3 -6 -3 -13 -15 -16 -14 -4 -21 -13 -21 -31 0 -14 -3 -22 -7
-19 -9 10 -35 -31 -28 -44 4 -6 -2 -13 -14 -16 -20 -5 -25 -14 -22 -40 1 -8
-5 -10 -15 -6 -12 4 -15 3 -10 -5 4 -7 3 -12 -1 -12 -5 0 -14 -9 -20 -20 -11
-17 -10 -18 5 -13 15 6 15 4 4 -10 -8 -8 -19 -14 -26 -11 -9 4 -12 -3 -11 -20
2 -14 -1 -28 -6 -32 -5 -3 -7 -10 -4 -15 3 -5 -1 -6 -9 -3 -11 4 -16 0 -16
-15 0 -23 -15 -28 -24 -8 -4 8 -5 7 -4 -3 1 -8 -2 -22 -5 -30 -3 -8 -7 -23 -9
-33 -2 -10 -7 -17 -12 -17 -13 2 -25 -21 -21 -42 3 -15 1 -16 -17 -7 -18 9
-19 8 -13 -10 3 -12 2 -21 -3 -21 -5 0 -9 -8 -8 -17 0 -12 -6 -17 -17 -17 -13
2 -16 -3 -12 -17 4 -11 2 -19 -5 -19 -6 0 -10 -8 -8 -17 2 -13 -3 -17 -16 -15
-10 2 -15 -1 -12 -6 3 -6 0 -13 -6 -15 -10 -4 -10 -6 0 -6 7 -1 11 -5 7 -11
-3 -5 -12 -7 -21 -3 -8 3 -14 2 -13 -3 4 -22 -2 -45 -10 -39 -12 7 -24 -12
-27 -43 -4 -32 -13 -40 -25 -22 -8 11 -9 8 -5 -12 4 -18 2 -28 -5 -28 -6 0 -9
-9 -6 -20 6 -24 3 -25 -19 -3 -16 16 -16 16 -10 -4 4 -12 2 -24 -4 -28 -6 -4
-9 -13 -6 -21 7 -17 -10 -28 -20 -13 -5 8 -3 9 6 4 9 -6 11 -4 6 4 -10 16 -20
5 -21 -22 0 -14 -5 -21 -14 -19 -12 3 -12 1 0 -14 12 -16 12 -17 -5 -11 -13 5
-17 3 -13 -7 3 -8 1 -17 -6 -20 -7 -2 1 -5 17 -5 23 -1 27 -5 23 -21 -3 -11
-2 -18 2 -15 13 8 66 -12 63 -24 -2 -10 10 -15 24 -8 3 1 12 -9 21 -23 8 -14
12 -17 9 -7 -3 11 0 17 9 17 8 0 14 -3 14 -8 -3 -20 3 -29 19 -29 35 0 42 -3
42 -18 0 -9 10 -15 26 -15 14 0 23 -4 20 -9 -8 -12 20 -34 33 -27 5 4 12 2 16
-4 4 -6 11 -8 16 -4 5 3 9 2 8 -3 -4 -22 3 -31 21 -28 11 2 20 -1 20 -6 0 -6
6 -7 13 -3 8 5 8 2 -2 -9 -12 -15 -10 -17 15 -18 16 -1 36 0 44 1 12 1 13 -1
3 -11 -20 -20 -16 -28 13 -24 19 2 28 -4 34 -21 5 -13 12 -24 15 -24 4 0 3 6
-1 12 -6 9 -3 9 9 0 9 -8 21 -11 27 -7 6 3 10 -3 10 -15 0 -12 5 -18 10 -15 6
3 10 2 10 -4 0 -6 7 -7 17 -4 9 4 14 2 10 -3 -3 -6 -2 -16 2 -23 6 -10 10 -9
14 4 4 9 3 13 -3 10 -6 -3 -7 1 -3 10 4 13 8 14 14 4 4 -7 6 -16 3 -20 -2 -4
4 -13 13 -20 14 -12 16 -12 8 1 -8 13 -6 13 8 1 9 -7 14 -17 11 -22 -3 -5 7
-9 21 -9 18 0 24 -4 19 -12 -6 -10 -5 -10 8 -1 8 7 18 10 21 6 4 -3 0 -11 -9
-17 -13 -10 -9 -12 21 -13 42 -1 55 -10 35 -24 -11 -8 -10 -9 8 -4 12 3 22 2
22 -3 0 -5 17 -10 38 -11 20 -1 42 -3 49 -3 7 -1 10 -5 7 -9 -2 -5 -12 -6 -22
-3 -14 5 -14 4 -2 -4 8 -6 18 -8 22 -6 4 3 8 -1 8 -8 0 -10 2 -10 9 1 5 8 11
9 15 3 3 -5 17 -8 32 -6 18 2 24 -1 20 -11 -3 -8 0 -17 6 -21 6 -4 8 -3 5 2
-10 17 10 39 25 27 7 -6 21 -9 31 -8 9 2 15 0 12 -5 -6 -9 -24 -8 -42 3 -8 5
-13 4 -13 -2 0 -14 -10 -13 172 -15 132 -2 156 0 146 11 -9 11 -13 12 -20 1
-8 -10 -9 -10 -6 1 3 9 19 15 46 16 99 4 103 5 96 18 -5 7 0 6 11 -3 17 -14
18 -13 13 1 -5 14 3 18 48 24 29 3 57 11 60 17 4 7 2 8 -4 4 -7 -4 -12 -2 -12
3 0 6 11 11 23 11 15 0 28 9 36 22 l11 23 -6 -24 c-5 -21 -4 -22 9 -10 8 8 13
17 10 22 -2 4 8 7 22 7 19 0 26 4 22 14 -8 20 4 28 20 15 10 -9 13 -7 13 10 0
11 5 21 11 21 5 0 7 -5 3 -12 -5 -7 -3 -8 5 -4 7 5 10 11 6 14 -3 3 7 12 22
19 16 7 20 11 11 9 -12 -4 -15 0 -11 9 3 8 9 12 14 9 5 -3 19 2 31 10 12 9 18
16 12 16 -5 0 -16 -6 -23 -13 -10 -10 -11 -9 -6 5 4 10 15 18 25 18 12 0 17 6
15 18 -4 25 5 35 21 21 11 -9 14 -7 14 9 0 12 5 24 12 28 7 5 8 2 3 -7 -6 -10
-5 -11 4 -3 6 6 14 24 17 40 3 16 9 33 14 38 6 6 8 1 5 -13 -2 -12 0 -19 6
-16 5 4 9 19 9 34 0 32 24 61 33 39 3 -7 5 1 5 17 -1 48 1 55 17 49 11 -5 15
1 16 22 1 16 1 32 0 37 0 4 4 7 10 7 5 0 7 5 4 10 -3 6 1 10 9 10 9 0 16 5 16
11 0 6 -8 8 -17 5 -17 -6 -17 -5 0 8 10 7 17 27 17 45 0 17 5 31 12 31 9 0 9
3 0 12 -7 7 -12 17 -12 23 0 5 5 3 10 -5 8 -13 11 -13 22 -1 10 10 10 12 1 7
-7 -4 -13 -2 -13 3 0 6 3 11 8 11 4 0 8 14 8 31 1 24 -2 29 -15 25 -14 -6 -14
-5 0 6 12 10 16 35 16 120 0 77 -3 106 -11 101 -6 -4 -5 1 3 10 12 16 8 22
-12 18 -5 -1 -6 3 -3 8 4 5 0 12 -6 15 -7 3 -2 3 11 0 16 -4 21 -3 17 5 -4 6
-13 11 -21 11 -9 0 -13 15 -12 50 0 38 -4 54 -19 66 -10 8 -13 13 -7 9 9 -4
11 -1 7 9 -3 9 -11 13 -17 9 -6 -4 -8 2 -4 16 3 14 0 24 -9 28 -8 3 -14 12
-14 20 0 8 -5 11 -12 7 -7 -4 -8 -3 -4 5 10 16 -1 61 -15 61 -6 0 -7 -6 -3
-12 5 -9 4 -10 -4 -3 -6 6 -12 24 -14 40 -2 18 -9 30 -18 30 -8 1 -14 6 -13
13 2 7 -2 12 -8 12 -5 0 -7 4 -4 10 3 6 -1 7 -9 4 -12 -4 -16 0 -16 16 0 13
-4 19 -12 14 -7 -5 -9 -1 -6 13 4 14 1 20 -10 19 -8 0 -16 7 -18 17 -1 11 -6
22 -10 25 -4 4 -4 -1 -1 -10 3 -10 2 -20 -2 -23 -5 -2 -12 6 -15 20 -4 16 -11
22 -21 19 -10 -4 -15 0 -15 11 0 10 5 14 13 9 7 -4 9 -3 4 2 -9 9 -13 10 -42
13 -8 0 -15 8 -15 16 0 8 -7 16 -15 16 -8 1 -19 3 -25 4 -5 1 -14 3 -20 4 -5
0 -10 10 -10 21 0 18 -3 19 -21 9 -20 -10 -21 -9 -16 10 3 11 2 21 -1 22 -4 1
-19 2 -34 3 -15 0 -33 7 -40 15 -11 12 -10 13 2 6 13 -8 13 -6 2 7 -8 9 -20
14 -28 11 -12 -5 -19 7 -15 30 0 4 -2 6 -6 6 -24 -4 -73 2 -72 9 3 19 -2 33
-10 27 -5 -3 -16 2 -24 10 -9 8 -20 15 -25 15 -6 0 -13 6 -15 13 -4 9 -6 8 -6
-2 -1 -11 -4 -11 -16 -1 -8 7 -13 16 -10 20 3 5 0 12 -6 16 -7 4 -9 3 -5 -4 3
-6 2 -13 -4 -17 -5 -3 -10 1 -10 10 0 9 -4 13 -10 10 -5 -3 -10 -1 -10 5 0 6
-4 8 -10 5 -9 -5 -14 6 -12 26 1 3 -9 5 -21 4 -26 -2 -57 15 -57 32 0 7 -6 10
-14 7 -8 -3 -17 0 -21 5 -3 6 -11 8 -17 5 -7 -4 -8 -2 -4 4 4 6 14 8 23 5 11
-4 14 -3 9 6 -4 6 -17 11 -29 9 -17 -2 -21 2 -19 17 2 18 2 18 -8 3 -15 -24
-29 -23 -23 2 4 15 1 18 -15 15 -14 -2 -22 3 -25 17 -4 14 -11 19 -21 15 -9
-4 -16 -3 -16 2 0 7 -48 10 -68 3z m448 -252 c0 -5 -2 -10 -4 -10 -3 0 -8 5
-11 10 -3 6 -1 10 4 10 6 0 11 -4 11 -10z m115 -59 c3 -5 1 -12 -5 -16 -5 -3
-10 1 -10 9 0 18 6 21 15 7z m108 -76 c-3 -9 -8 -14 -10 -11 -3 3 -2 9 2 15 9
16 15 13 8 -4z m-1448 -875 c3 -5 -1 -10 -10 -10 -9 0 -13 5 -10 10 3 6 8 10
10 10 2 0 7 -4 10 -10z m1930 -60 c-3 -5 -12 -10 -18 -10 -7 0 -6 4 3 10 19
12 23 12 15 0z m-2038 -225 c0 -8 -4 -12 -9 -9 -5 3 -6 10 -3 15 9 13 12 11
12 -6z"/>
<path d="M2305 2720 c3 -5 11 -10 16 -10 6 0 7 5 4 10 -3 6 -11 10 -16 10 -6
0 -7 -4 -4 -10z"/>
<path d="M260 2681 c0 -5 7 -11 14 -14 10 -4 13 -1 9 9 -6 15 -23 19 -23 5z"/>
<path d="M2183 2635 c0 -8 4 -12 9 -9 5 3 6 10 3 15 -9 13 -12 11 -12 -6z"/>
<path d="M4140 2626 c0 -2 6 -9 13 -15 10 -8 14 -7 14 4 0 8 -6 15 -14 15 -7
0 -13 -2 -13 -4z"/>
<path d="M339 2353 c-13 -16 -12 -17 4 -4 9 7 17 15 17 17 0 8 -8 3 -21 -13z"/>
<path d="M3600 2300 c-9 -6 -10 -10 -3 -10 6 0 15 5 18 10 8 12 4 12 -15 0z"/>
<path d="M2427 2293 c-10 -9 -9 -23 1 -23 5 0 9 7 9 15 0 17 -1 18 -10 8z"/>
<path d="M3390 2279 c0 -5 5 -7 10 -4 6 3 10 8 10 11 0 2 -4 4 -10 4 -5 0 -10
-5 -10 -11z"/>
<path d="M416 2063 c-6 -14 -5 -15 5 -6 7 7 10 15 7 18 -3 3 -9 -2 -12 -12z"/>
<path d="M3336 1888 c3 -5 10 -6 15 -3 13 9 11 12 -6 12 -8 0 -12 -4 -9 -9z"/>
<path d="M3150 1601 c0 -6 4 -13 10 -16 6 -3 7 1 4 9 -7 18 -14 21 -14 7z"/>
<path d="M553 1495 c0 -8 4 -12 9 -9 5 3 6 10 3 15 -9 13 -12 11 -12 -6z"/>
<path d="M593 1371 c0 -11 5 -18 9 -15 4 3 5 11 1 19 -7 21 -12 19 -10 -4z"/>
<path d="M2678 1253 c6 -2 9 -10 6 -15 -4 -7 -2 -8 5 -4 13 9 5 26 -12 25 -9
0 -8 -2 1 -6z"/>
<path d="M620 1219 c0 -5 5 -7 10 -4 6 3 10 8 10 11 0 2 -4 4 -10 4 -5 0 -10
-5 -10 -11z"/>
<path d="M2536 1181 c-3 -4 0 -16 8 -26 11 -15 13 -16 13 -1 0 9 -4 16 -9 16
-5 0 -6 5 -3 10 3 6 4 10 1 10 -3 0 -7 -4 -10 -9z"/>
<path d="M3145 1071 c-3 -5 -2 -12 3 -15 5 -3 9 1 9 9 0 17 -3 19 -12 6z"/>
<path d="M660 1059 c0 -5 5 -7 10 -4 6 3 10 8 10 11 0 2 -4 4 -10 4 -5 0 -10
-5 -10 -11z"/>
<path d="M3260 1000 c0 -5 5 -10 11 -10 5 0 7 5 4 10 -3 6 -8 10 -11 10 -2 0
-4 -4 -4 -10z"/>
<path d="M2581 951 c-9 -6 -10 -11 -2 -15 6 -4 11 -12 11 -17 0 -6 -4 -8 -8
-5 -5 3 -8 -14 -7 -37 1 -23 -2 -47 -7 -54 -9 -12 8 -30 19 -19 4 3 1 6 -6 6
-7 0 -9 5 -6 10 4 6 9 8 13 6 4 -2 7 27 7 65 0 38 0 69 0 69 0 0 -6 -4 -14 -9z"/>
<path d="M2546 635 c-9 -26 -7 -32 5 -12 6 10 9 21 6 23 -2 3 -7 -2 -11 -11z"/>
<path d="M810 553 c5 -2 8 -9 4 -14 -3 -5 0 -9 6 -9 15 0 7 23 -8 26 -7 1 -8
0 -2 -3z"/>
<path d="M2435 400 c3 -5 8 -10 11 -10 2 0 4 5 4 10 0 6 -5 10 -11 10 -5 0 -7
-4 -4 -10z"/>
<path d="M2356 307 c3 -10 9 -15 12 -12 3 3 0 11 -7 18 -10 9 -11 8 -5 -6z"/>
<path d="M1850 20 c0 -5 5 -10 11 -10 5 0 7 5 4 10 -3 6 -8 10 -11 10 -2 0 -4
-4 -4 -10z"/>
</g>
</svg>
